<?xml version="1.0" standalone="no"?>
<!DOCTYPE svg PUBLIC "-//W3C//DTD SVG 20010904//EN"
 "http://www.w3.org/TR/2001/REC-SVG-20010904/DTD/svg10.dtd">
<svg version="1.0" xmlns="http://www.w3.org/2000/svg"
 width="250.000000pt" height="250.000000pt" viewBox="0 0 250.000000 250.000000"
 preserveAspectRatio="xMidYMid meet">
<metadata>
Created by potrace 1.11, written by Peter Selinger 2001-2013
</metadata>
<g transform="translate(0.000000,250.000000) scale(0.100000,-0.100000)"
fill="#000000" stroke="none">
<path d="M1065 2474 c-598 -90 -1050 -604 -1058 -1201 -5 -359 116 -659 367
-908 164 -162 306 -245 556 -323 19 -6 52 -14 74 -18 21 -3 48 -8 60 -10 11
-3 73 -7 136 -9 118 -5 282 12 375 38 206 59 395 168 544 316 183 182 289 376
346 631 20 91 23 127 20 270 -3 182 -6 207 -42 330 -53 186 -166 379 -302 518
-196 200 -405 309 -706 367 -65 13 -283 12 -370 -1z m457 -594 c42 -42 39 -58
-70 -351 -50 -134 -93 -251 -94 -259 -2 -8 -6 -17 -9 -20 -4 -4 -61 -152 -65
-170 0 -3 -5 -16 -11 -30 -5 -14 -20 -54 -33 -90 -13 -36 -27 -70 -32 -76 -5
-7 -8 -16 -7 -20 2 -5 -2 -20 -8 -34 -17 -38 -27 -64 -28 -75 -4 -22 -43 -101
-56 -111 -46 -36 -131 -16 -145 34 -10 36 -11 55 -3 67 10 16 43 119 41 128
-1 4 3 7 8 7 6 0 10 6 10 13 0 7 14 48 31 92 17 44 32 85 33 90 2 6 7 19 11
30 45 114 54 139 50 145 -3 5 0 10 5 12 6 2 12 13 13 26 0 12 5 22 9 22 4 0 8
5 8 12 0 12 156 436 188 513 9 22 16 44 14 50 -2 5 0 7 3 3 4 -4 17 -1 29 7
34 24 74 18 108 -15z m-644 -216 c14 -16 22 -38 22 -61 0 -34 -12 -49 -150
-187 l-149 -151 143 -144 c92 -91 146 -153 149 -170 7 -36 -15 -83 -46 -100
-56 -30 -78 -15 -300 207 l-207 207 213 211 c116 117 219 214 227 217 29 10
75 -4 98 -29z m868 18 c9 -5 109 -101 221 -213 168 -169 200 -206 188 -215 -8
-6 -15 -17 -15 -23 0 -7 -3 -11 -7 -9 -10 5 -102 -90 -95 -97 3 -3 -2 -5 -11
-5 -8 0 -19 -9 -22 -21 -4 -11 -9 -18 -12 -16 -6 7 -53 -42 -53 -55 0 -6 -2
-9 -5 -6 -7 7 -115 -100 -115 -114 0 -6 -2 -9 -5 -6 -3 3 -21 -10 -41 -28 -40
-39 -79 -44 -124 -17 -21 12 -30 27 -34 52 -7 52 -4 69 11 75 8 4 11 11 7 18
-4 7 -4 10 0 6 9 -8 86 67 86 84 0 6 3 9 6 5 8 -7 74 59 74 74 0 7 3 9 6 6 7
-6 94 78 94 90 0 4 -57 63 -127 133 -162 161 -168 169 -167 203 3 77 72 117
140 79z"/>
</g>
</svg>
